<?xml version="1.0" encoding="utf-8"?>
<svg xmlns="http://www.w3.org/2000/svg" xmlns:xlink="http://www.w3.org/1999/xlink" version= "1.1" width="512px" height="512px" viewBox="344 690 512 512">
<g id="layer1">
<g style="fill:rgb(254,254,254); fill-opacity:1.0; stroke-linejoin: miter">
<path d="M828.208,949.9118L826.1129,981.0544Q811.21765,1075.1697,738.94635,1131.597Q666.1749,1187.9789,567.5597,1177.3224Q473.44434,1162.4272,417.017,1090.1559Q398.93704,1066.7947,387.2323,1039.2458L377.39478,1010.9235Q369.28775,981.69104,369.1966,949.9118Q371.65765,852.38635,436.41724,787.6268Q501.17682,722.8672,598.7023,720.4061Q696.22766,722.8672,760.9873,787.6268Q825.74695,852.38635,828.208,949.9118"/>
</g>
</g>
<g id="layer2">
<g style="fill:rgb(0,0,0); fill-opacity:1.0; stroke-linejoin: miter">
<path d="M685.3823,871.1365L684.7733,870.4251Q678.57043,863.7949,672.6184,851.9131Q667.34485,842.5249,651.15845,796.5597Q647.81433,787.5446,637.83435,775.2683Q617.81323,756.06836,585.2879,766.3669Q568.3862,773.0114,558.7379,787.26794Q554.5734,793.8599,551.2286,801.015L532.6135,844.7649Q525.9763,858.9635,515.00134,869.9508Q512.83545,873.5285,495.94913,882.20215Q485.44147,886.79926,458.68134,894.39685Q451.1602,896.7758,444.1346,899.96295Q427.53052,908.3966,424.6911,914.27075Q405.96045,947.79297,428.26862,976.30365Q434.7103,982.92285,443.35397,987.86176L490.69318,1010.05927Q500.02097,1014.79987,507.694,1021.062Q513.5826,1025.1348,523.85223,1040.4019Q528.28064,1046.7833,546.6041,1081.4075Q550.48535,1088.1545,554.98254,1094.408Q567.3474,1109.8467,570.1256,1110.4612Q594.8759,1126.7358,627.16296,1115.9095Q638.0412,1111.9719,649.7918,1096.8951Q655.36633,1090.7,675.1653,1049.6927Q686.81586,1030.7887,690.6875,1028.4977Q692.7035,1025.5845,706.829,1016.5632Q712.40466,1012.89856,743.8468,999.0368Q758.972,991.2098,761.4473,988.84534Q773.34106,981.2072,779.7588,959.5163Q785.40063,932.61597,769.5648,914.04Q766.5384,909.8544,750.9152,902.2826L711.82104,888.07117Q699.63477,881.62976,685.3823,871.1365"/>
</g>
<g style="fill:rgb(254,254,254); fill-opacity:1.0; stroke-linejoin: miter">
</g>
<g style="fill:rgb(254,254,254); fill-opacity:1.0; stroke-linejoin: miter">
</g>
</g>
</svg>