<?xml version="1.0" encoding="utf-8"?>
<svg xmlns="http://www.w3.org/2000/svg" xmlns:xlink="http://www.w3.org/1999/xlink" version= "1.1" width="64px" height="64px" viewBox="568 914 64 64">
<g id="layer1">
<g style="fill:rgb(254,254,254); fill-opacity:1.0; stroke-linejoin: miter">
<path d="M629.84393,946.5166L629.5778,950.4724Q627.6858,962.4273,618.5056,969.5949Q609.2619,976.7567,596.7355,975.40314Q584.7806,973.51105,577.6129,964.33093Q575.31635,961.36346,573.8295,957.86414L572.57996,954.26654Q571.5502,950.5533,571.5386,946.5166Q571.8512,934.12854,580.0772,925.9025Q588.3033,917.6765,600.6913,917.3639Q613.0793,917.6765,621.3053,925.9025Q629.5313,934.12854,629.84393,946.5166"/>
</g>
</g>
<g id="layer2">
<g style="fill:rgb(0,0,0); fill-opacity:1.0; stroke-linejoin: miter">
<path d="M602.66516,922.8372L599.3887,922.89624Q596.599,931.3844,592.8578,935.7854Q590.2745,938.64667,586.5629,940.58813Q583.5362,942.26,577.313,944.63763L577.32355,947.9636Q585.09955,950.8291,589.4133,954.47253Q594.5411,959.14996,599.07635,969.3419L602.7364,969.5182Q606.8572,959.4895,610.64014,956.0428Q614.1157,952.3164,624.5123,947.9984L624.40137,944.5647Q618.19653,942.1963,615.18933,940.52814Q611.4995,938.5913,608.96246,935.7312Q605.29346,931.3316,602.66516,922.8372"/>
</g>
</g>
</svg>