<?xml version="1.0" encoding="utf-8"?>
<svg xmlns="http://www.w3.org/2000/svg" xmlns:xlink="http://www.w3.org/1999/xlink" version= "1.1" width="500px" height="500px" viewBox="380 730 460 450">
<g id="layer1">
<g style="fill:rgb(0,0,0); fill-opacity:1.0; stroke-linejoin: miter">
<path d="M420.3137,940.9092L420.3137,940.9092C519.9698,911.32715,549.9471,846.2477,579.38324,781.5697L579.38324,781.5697C584.2778,770.8153,589.2493,759.88654,594.4915,749.35065C599.535,739.2143,611.8409,735.08575,621.97736,740.1292C632.11383,745.17267,636.2425,757.47845,631.1989,767.6148L631.1989,767.6148C626.3261,777.40796,621.6523,787.67236,616.7004,798.55334L616.70026,798.55334C586.831,864.1826,550.3758,945.06934,431.981,980.214C421.12723,983.4359,409.71674,977.249,406.49487,966.39514C403.273,955.5414,409.4599,944.13086,420.3137,940.9092 Z"/>
</g>
<g style="fill:rgb(0,0,0); fill-opacity:1.0; stroke-linejoin: miter">
<path d="M636.01996,756.946L636.01996,756.946L646.81366,1141.9366C647.13104,1153.254,638.2137,1162.6859,626.8963,1163.003C615.57904,1163.3204,606.1473,1154.4032,605.83,1143.0858L605.83,1143.0858L595.03595,758.09503C594.71857,746.77765,603.6359,737.3459,614.9534,737.02875C626.2708,736.71124,635.7027,745.6286,636.01996,756.946 Z"/>
</g>
<g style="fill:rgb(0,0,0); fill-opacity:1.0; stroke-linejoin: miter">
<path d="M499.56244,917.1725L499.56244,917.1725C631.4206,980.18396,640.5909,1079.0968,644.50836,1124.0613L644.50836,1124.0613C645.1077,1130.9426,645.4964,1135.1318,646.02423,1137.9338C648.11945,1149.0599,640.7985,1159.7782,629.6723,1161.8737C618.5461,1163.9691,607.8278,1156.6481,605.7325,1145.5219L605.7325,1145.5219C604.73956,1140.2496,604.1899,1133.6681,603.663,1127.6198L603.663,1127.6198C600.16046,1087.4167,593.76227,1007.629,481.88443,954.1655C471.66904,949.2837,467.34525,937.04517,472.22696,926.82996C477.1086,916.6146,489.34714,912.2909,499.56244,917.1725 Z"/>
</g>
<g style="fill:rgb(0,0,0); fill-opacity:1.0; stroke-linejoin: miter">
<path d="M606.67303,1140.3776L606.67303,1140.3776C616.9958,1043.1823,630.36957,995.60266,693.1691,932.6371C701.16425,924.6207,714.1442,924.6035,722.16046,932.59875C730.1768,940.5939,730.19403,953.5736,722.19867,961.58984L722.19867,961.58984C668.65216,1015.2782,657.26324,1052.2504,647.44354,1144.7076C646.24786,1155.9662,636.1518,1164.1237,624.89325,1162.9281C613.6348,1161.7323,605.47723,1151.6361,606.67303,1140.3776 Z"/>
</g>
<g style="fill:rgb(0,0,0); fill-opacity:1.0; stroke-linejoin: miter">
<path d="M635.2966,856.51013L635.2966,856.51013C672.28156,904.5947,740.8067,944.80554,795.15674,941.72595C806.46045,941.0856,816.1432,949.72974,816.78357,961.03345C817.4242,972.3373,808.7799,982.02,797.4761,982.6603L797.4761,982.6603C725.37885,986.7455,645.0793,936.4772,602.7979,881.50696C595.8952,872.5327,597.5745,859.66187,606.54877,852.75916C615.52313,845.85645,628.39386,847.53577,635.2966,856.51013 Z"/>
</g>
<g style="fill:rgb(0,0,0); fill-opacity:1.0; stroke-linejoin: miter">
<path d="M616.9809,736.9152L616.9809,736.9152C668.75665,736.9151,695.3597,778.83276,695.3597,816.7123L695.3597,816.7123C695.3597,853.91833,669.96356,892.40344,618.62396,892.40344C607.30206,892.40344,598.12384,883.22534,598.12384,871.90344C598.12384,860.58154,607.30206,851.4033,618.62396,851.40344L618.62396,851.40344C643.4489,851.4033,654.35956,835.34973,654.3597,816.7123L654.3597,816.7123C654.3597,796.0123,641.01056,777.91516,616.9809,777.91516C605.659,777.91516,596.4809,768.73694,596.4809,757.4151C596.4809,746.0932,605.659,736.9151,616.9809,736.9152 Z"/>
</g>
<g style="fill:rgb(0,0,0); fill-opacity:1.0; stroke-linejoin: miter">
</g>
<g style="fill:rgb(0,0,0); fill-opacity:1.0; stroke-linejoin: miter">
<path d="M622.466,778.27515L622.466,778.27515C508.6167,761.7828,442.91394,834.90576,430.62906,919.7091L430.62906,919.7091C417.75943,1008.5491,464.18127,1104.2794,575.8133,1120.451L575.8133,1120.451C590.4921,1122.5773,606.4489,1123.3756,623.7393,1122.5844C635.0494,1122.067,644.6375,1130.8162,645.15497,1142.1261C645.6723,1153.4362,636.9233,1163.0243,625.6132,1163.5416L625.6132,1163.5416C605.91205,1164.443,587.3515,1163.5503,569.93536,1161.0273L569.93536,1161.0273C430.71194,1140.8591,374.74182,1019.52185,390.05255,913.83093L390.05255,913.83093C404.95633,810.9496,487.98572,717.36615,628.3443,737.6988C639.54913,739.32184,647.3166,749.721,645.6934,760.92596C644.07025,772.131,633.6711,779.8983,622.466,778.27515 Z"/>
</g>
</g>
</svg>