<?xml version="1.0" encoding="utf-8"?>
<svg xmlns="http://www.w3.org/2000/svg" xmlns:xlink="http://www.w3.org/1999/xlink" version= "1.1" width="512px" height="512px" viewBox="344 690 512 512">
<g id="layer1">
<g style="fill:rgb(254,254,254); fill-opacity:1.0; stroke-linejoin: miter">
<path d="M828.208,949.9118L826.1129,981.0544Q811.21765,1075.1697,738.94635,1131.597Q666.1749,1187.9789,567.5597,1177.3224Q473.44434,1162.4272,417.017,1090.1559Q398.93704,1066.7947,387.2323,1039.2458L377.39478,1010.9235Q369.28775,981.69104,369.1966,949.9118Q371.65765,852.38635,436.41724,787.6268Q501.17682,722.8672,598.7023,720.4061Q696.22766,722.8672,760.9873,787.6268Q825.74695,852.38635,828.208,949.9118"/>
</g>
</g>
<g id="layer2">
<g style="fill:rgb(0,0,0); fill-opacity:1.0; stroke-linejoin: miter">
<path d="M686.91284,870.8744L685.18396,868.9065Q677.35547,860.13245,670.75244,847.57886L644.964,790.6434Q633.1907,768.9042,629.74725,766.53394Q623.98224,759.7757,616.96515,755.84766L609.56116,752.8805Q599.97394,750.5372,591.5597,753.45874Q574.2117,760.4794,563.449,777.7615Q558.26117,786.2009,555.4577,792.9573Q535.72675,841.4618,533.1696,844.4697Q525.9756,858.60486,515.00134,869.95087Q503.70142,880.82275,489.2744,887.25684Q482.36517,890.85815,444.45798,904.53876Q437.0306,907.5138,430.0591,911.1714Q422.866,915.0748,417.1408,922.138Q397.55344,946.46265,416.8178,968.25977Q418.2379,970.7562,431.50165,978.64606Q430.71008,979.60803,479.50952,998.1233Q492.4734,1003.94366,503.39874,1012.62683Q513.18066,1020.4115,523.1417,1035.7102Q524.22296,1034.9238,555.6803,1094.437Q566.64435,1112.5718,569.73206,1114.6667Q596.4467,1138.3074,616.06287,1130.8568L626.88184,1124.5656Q635.0956,1118.1619,640.99884,1109.257Q647.7793,1101.5952,669.34143,1047.3446Q674.192,1036.948,680.65137,1028.0582L687.75793,1019.79565Q695.2802,1012.5146,705.43945,1007.21704L759.7008,984.414L769.302,979.34357Q778.44684,974.0222,784.27844,966.7013L788.90967,958.6316Q795.80066,935.74725,778.9548,919.828Q767.2219,910.7984,758.6736,907.5399Q713.7224,890.636,710.4658,887.6365Q696.86755,880.7734,686.91284,870.8744"/>
</g>
<g style="fill:rgb(254,254,254); fill-opacity:1.0; stroke-linejoin: miter">
<path d="M760.69037,1071.6836L760.6903,1071.6838L760.6903,1071.684L760.69037,1071.6836"/>
</g>
<g style="fill:rgb(254,254,254); fill-opacity:1.0; stroke-linejoin: miter">
<path d="M815.2987,673.3497L815.2987,673.35L815.29877,673.35034L815.2987,673.3497"/>
</g>
</g>
</svg>